# xmcd CD database file
#
# Track frame offsets:
#       150
#       21060
#       32490
#       48914
#       66451
#       78584
#       91050
#       105651
#       116880
#       137475
#       153147
#       164723
#       177777
#       197595
#
# Disc length: 2896 seconds
#
# Revision: 1
# Processed by: cddbd v1.5.2PL0 Copyright (c) Steve Scherf et al.
# Submitted via: jack 3.1.1
#
DISCID=b00b4e0e
DTITLE=Various Artist - Atlantic Standards: Kitchen Party
DYEAR=2010
DGENRE=Celtic
TTITLE0=The Rankins - Christy Campbell Medley
TTITLE1=Great Big Sea - Mari-Mac
TTITLE2=Fleur Mainville - Whole On It
TTITLE3=Rawlins Cross - Colleen
TTITLE4=Samantha Robichaud - Musical Preacher
TTITLE5=The Barra MacNeils - Coaltown Road
TTITLE6=Gillian Boucher - Reel Hot
TTITLE7=Shanneyganock - Courtin' in the Kitchen
TTITLE8=Vishten - Shediac Bridge
TTITLE9=The Navigators - Donald MacGilliavry
TTITLE10=Natalie MacMaster - Gramma
TTITLE11=The Fables - As I Roved Out
TTITLE12=Chrissy Crowley - The Chisholm Influence
TTITLE13=The Irish Descendants - Barrett's Privateers
EXTD=
EXTT0=
EXTT1=
EXTT2=
EXTT3=
EXTT4=
EXTT5=
EXTT6=
EXTT7=
EXTT8=
EXTT9=
EXTT10=
EXTT11=
EXTT12=
EXTT13=
PLAYORDER=
